<?xml version="1.0" standalone="no"?>
<!DOCTYPE svg PUBLIC "-//W3C//DTD SVG 20010904//EN"
 "http://www.w3.org/TR/2001/REC-SVG-20010904/DTD/svg10.dtd">
<svg version="1.0" xmlns="http://www.w3.org/2000/svg"
 width="66.000000pt" height="73.000000pt" viewBox="0 0 66.000000 73.000000"
 preserveAspectRatio="xMidYMid meet">

<g transform="translate(0.000000,73.000000) scale(0.100000,-0.100000)"
fill="#000000" stroke="none">
<path d="M0 365 l0 -365 330 0 330 0 0 365 0 365 -330 0 -330 0 0 -365z m366
172 c2 -7 3 -95 2 -195 l-3 -183 -22 21 c-22 20 -23 27 -23 189 0 92 3 171 7
174 11 11 33 8 39 -6z m-73 -52 c0 -19 -3 -38 -6 -42 -4 -3 -7 15 -7 42 0 27
3 45 7 42 3 -4 6 -23 6 -42z m110 -35 c-1 -39 -4 -70 -7 -70 -3 0 -6 2 -6 5 0
3 0 34 0 70 0 36 3 65 8 65 4 0 6 -31 5 -70z m53 -5 c-3 -8 -1 -17 4 -20 12
-7 13 -125 2 -140 -4 -5 -22 -20 -39 -33 l-33 -23 0 49 c0 32 5 54 15 62 9 7
15 29 15 51 0 22 5 39 11 39 5 0 7 5 4 10 -3 6 -3 20 1 32 6 19 7 20 16 4 5
-9 7 -24 4 -31z m-196 -28 c0 -31 6 -49 20 -62 14 -13 20 -31 20 -62 0 -25 -3
-43 -7 -41 -38 18 -73 46 -77 63 -8 27 -7 110 0 129 3 9 15 16 25 16 16 0 19
-7 19 -43z m-95 -47 c-3 -5 -1 -18 4 -29 8 -14 7 -22 -3 -30 -9 -7 -17 -8 -20
-3 -8 14 5 72 16 72 5 0 6 -4 3 -10z m385 -66 c0 -16 -5 -17 -38 -8 l-23 7 23
12 c26 13 38 10 38 -11z m-326 -55 c17 -12 43 -37 59 -57 28 -36 55 -107 45
-118 -11 -10 -76 24 -117 61 -43 39 -74 84 -86 124 -7 23 -6 24 30 18 21 -3
52 -16 69 -28z m306 -54 c-39 -63 -136 -132 -157 -111 -3 3 -1 23 5 44 14 47
77 109 128 127 36 12 39 12 42 -6 2 -11 -6 -35 -18 -54z"/>
</g>
</svg>
